<svg xmlns="http://www.w3.org/2000/svg" width="2700" height="2500" viewBox="0 0 2700 2500">
  <defs>
    <marker id="arrow" markerWidth="12" markerHeight="12" refX="10" refY="6" orient="auto" markerUnits="strokeWidth"><path d="M2,2 L10,6 L2,10 Z" fill="#334155"/></marker>
    <marker id="blueArrow" markerWidth="12" markerHeight="12" refX="10" refY="6" orient="auto" markerUnits="strokeWidth"><path d="M2,2 L10,6 L2,10 Z" fill="#0891b2"/></marker>
    <marker id="redArrow" markerWidth="12" markerHeight="12" refX="10" refY="6" orient="auto" markerUnits="strokeWidth"><path d="M2,2 L10,6 L2,10 Z" fill="#dc2626"/></marker>
    <filter id="shadow" x="-8%" y="-8%" width="116%" height="122%"><feDropShadow dx="0" dy="5" stdDeviation="5" flood-color="#0f172a" flood-opacity="0.11"/></filter>
    <style>
      .title { font: 800 28px Arial, sans-serif; fill: #0f172a; }
      .subtitle { font: 13px Arial, sans-serif; fill: #475569; }
      .section { font: 800 17px Arial, sans-serif; fill: #0f172a; }
      .nodeText { font: 700 12px Arial, sans-serif; fill: #0f172a; }
      .controlText { font: 700 11px Arial, sans-serif; fill: #7f1d1d; }
      .edgeFlow { fill: none; stroke: #334155; stroke-width: 2.6; marker-end: url(#arrow); }
      .edgeApi { fill: none; stroke: #0891b2; stroke-width: 2; marker-end: url(#blueArrow); }
      .edgeDb { fill: none; stroke: #64748b; stroke-width: 1.9; marker-end: url(#arrow); }
      .edgeRed { fill: none; stroke: #dc2626; stroke-width: 2; marker-end: url(#redArrow); }
    </style>
  </defs>
  <rect x="0" y="0" width="2700" height="2500" fill="#ffffff"/>
  <rect x="40" y="110" width="2670" height="2150" rx="22" ry="22" fill="#f8fafc" stroke="#e2e8f0"/>
  <rect x="52" y="240" width="760" height="1970" rx="18" ry="18" fill="#f8fafc" stroke="#cbd5e1"/>
  <rect x="860" y="240" width="740" height="1970" rx="18" ry="18" fill="#fff7ed" stroke="#fed7aa"/>
  <rect x="1660" y="240" width="950" height="1970" rx="18" ry="18" fill="#ecfeff" stroke="#a5f3fc"/>
  <path d="M900,185 C910,185 910,314 920,314" class="edgeFlow"/>
  <path d="M900,185 C910,185 910,449 920,449" class="edgeFlow"/>
  <path d="M930,185 C1235,185 1235,584 1540,584" class="edgeFlow"/>
  <path d="M930,185 C1235,185 1235,719 1540,719" class="edgeFlow"/>
  <path d="M930,185 C1235,185 1235,1259 1540,1259" class="edgeFlow"/>
  <path d="M930,185 C1235,185 1235,1934 1540,1934" class="edgeFlow"/>
  <path d="M1240,185 C1390,185 1390,1259 1540,1259" class="edgeFlow"/>
  <path d="M1240,185 C1390,185 1390,1799 1540,1799" class="edgeFlow"/>
  <path d="M1550,185 C1545,185 1545,2204 1540,2204" class="edgeFlow"/>
  <path d="M1230,358 C1230,381.5 1230,381.5 1230,405" class="edgeFlow"/>
  <path d="M1230,493 C1230,516.5 1230,516.5 1230,540" class="edgeFlow"/>
  <path d="M1230,628 C1230,651.5 1230,651.5 1230,675" class="edgeFlow"/>
  <path d="M1230,763 C1230,786.5 1230,786.5 1230,810" class="edgeFlow"/>
  <path d="M1230,898 C1230,921.5 1230,921.5 1230,945" class="edgeFlow"/>
  <path d="M1230,1033 C1230,1056.5 1230,1056.5 1230,1080" class="edgeFlow"/>
  <path d="M1230,1168 C1230,1191.5 1230,1191.5 1230,1215" class="edgeFlow"/>
  <path d="M1230,1303 C1230,1326.5 1230,1326.5 1230,1350" class="edgeFlow"/>
  <path d="M1230,1438 C1230,1461.5 1230,1461.5 1230,1485" class="edgeFlow"/>
  <path d="M1230,1573 C1230,1596.5 1230,1596.5 1230,1620" class="edgeFlow"/>
  <path d="M1230,1708 C1230,1731.5 1230,1731.5 1230,1755" class="edgeFlow"/>
  <path d="M1230,1843 C1230,1866.5 1230,1866.5 1230,1890" class="edgeFlow"/>
  <path d="M1230,1978 C1230,2001.5 1230,2001.5 1230,2025" class="edgeFlow"/>
  <path d="M1230,2113 C1230,2136.5 1230,2136.5 1230,2160" class="edgeFlow"/>
  <path d="M770,314 C845,314 845,314 920,314" class="edgeDb" stroke-dasharray="8 6"/>
  <path d="M770,449 C845,449 845,449 920,449" class="edgeDb" stroke-dasharray="8 6"/>
  <path d="M770,584 C845,584 845,584 920,584" class="edgeDb" stroke-dasharray="8 6"/>
  <path d="M770,719 C845,719 845,719 920,719" class="edgeDb" stroke-dasharray="8 6"/>
  <path d="M770,854 C845,854 845,854 920,854" class="edgeDb" stroke-dasharray="8 6"/>
  <path d="M770,989 C845,989 845,989 920,989" class="edgeDb" stroke-dasharray="8 6"/>
  <path d="M770,1124 C845,1124 845,1124 920,1124" class="edgeDb" stroke-dasharray="8 6"/>
  <path d="M770,1259 C845,1259 845,1259 920,1259" class="edgeDb" stroke-dasharray="8 6"/>
  <path d="M770,1394 C845,1394 845,1394 920,1394" class="edgeDb" stroke-dasharray="8 6"/>
  <path d="M770,1529 C845,1529 845,1529 920,1529" class="edgeDb" stroke-dasharray="8 6"/>
  <path d="M770,1664 C845,1664 845,1664 920,1664" class="edgeDb" stroke-dasharray="8 6"/>
  <path d="M770,1799 C845,1799 845,1799 920,1799" class="edgeDb" stroke-dasharray="8 6"/>
  <path d="M770,1934 C845,1934 845,1934 920,1934" class="edgeDb" stroke-dasharray="8 6"/>
  <path d="M770,2069 C845,2069 845,2069 920,2069" class="edgeDb" stroke-dasharray="8 6"/>
  <path d="M770,2204 C845,2204 845,2204 920,2204" class="edgeDb" stroke-dasharray="8 6"/>
  <path d="M770,1664 C845,1664 845,2204 920,2204" class="edgeDb" stroke-dasharray="8 6"/>
  <path d="M770,1934 C845,1934 845,2204 920,2204" class="edgeDb" stroke-dasharray="8 6"/>
  <path d="M1540,449 C1625,449 1625,449 1710,449" class="edgeApi"/>
  <path d="M1540,719 C1625,719 1625,719 1710,719" class="edgeApi"/>
  <path d="M1540,719 C1845,719 1845,719 2150,719" class="edgeApi"/>
  <path d="M1540,854 C1625,854 1625,854 1710,854" class="edgeApi"/>
  <path d="M1540,854 C1845,854 1845,854 2150,854" class="edgeApi"/>
  <path d="M1540,989 C1625,989 1625,989 1710,989" class="edgeApi"/>
  <path d="M1540,989 C1625,989 1625,854 1710,854" class="edgeApi"/>
  <path d="M1540,1124 C1845,1124 1845,1124 2150,1124" class="edgeApi"/>
  <path d="M1540,1259 C1625,1259 1625,1259 1710,1259" class="edgeApi"/>
  <path d="M1540,1529 C1625,1529 1625,1529 1710,1529" class="edgeApi"/>
  <path d="M1540,1529 C1845,1529 1845,1529 2150,1529" class="edgeApi"/>
  <path d="M1540,1664 C1625,1664 1625,1664 1710,1664" class="edgeApi"/>
  <path d="M1540,1799 C1845,1799 1845,1799 2150,1799" class="edgeApi"/>
  <path d="M1540,1799 C1625,1799 1625,1259 1710,1259" class="edgeApi"/>
  <path d="M1540,1934 C1625,1934 1625,1934 1710,1934" class="edgeApi"/>
  <path d="M1540,1934 C1845,1934 1845,1934 2150,1934" class="edgeApi"/>
  <path d="M1540,2069 C1625,2069 1625,2069 1710,2069" class="edgeApi"/>
  <path d="M1540,2204 C1845,2204 1845,2204 2150,2204" class="edgeApi"/>
  <path d="M1540,2204 C1625,2204 1625,2069 1710,2069" class="edgeApi"/>
  <path d="M1540,2204 C1625,2204 1625,1529 1710,1529" class="edgeApi"/>
  <path d="M450,2322 C685,2322 685,1664 920,1664" class="edgeRed" stroke-dasharray="8 6"/>
  <path d="M450,2322 C685,2322 685,1934 920,1934" class="edgeRed" stroke-dasharray="8 6"/>
  <path d="M880,2322 C900,2322 900,1529 920,1529" class="edgeRed" stroke-dasharray="8 6"/>
  <path d="M1135,2280 C1135,2264 1230,2264 1230,2248" class="edgeRed" stroke-dasharray="8 6"/>
  <path d="M1390,2322 C1465,2322 1465,1394 1540,1394" class="edgeRed" stroke-dasharray="8 6"/>
  <path d="M1390,2322 C1465,2322 1465,1799 1540,1799" class="edgeRed" stroke-dasharray="8 6"/>
  <path d="M1390,2322 C1465,2322 1465,1934 1540,1934" class="edgeRed" stroke-dasharray="8 6"/>
  <path d="M1890,2322 C1715,2322 1715,2204 1540,2204" class="edgeRed" stroke-dasharray="8 6"/>
  <text x="1350" y="46" text-anchor="middle" class="title">Direct Polaris Lending Node Flow: UI, Process, Database, External APIs, Controls</text>
  <text x="1350" y="92" text-anchor="middle" class="subtitle">No LOS. Each central process is connected to its database tables and external integration calls. Red control nodes show double-spend, timeout, audit and reconciliation safeguards.</text>
  <text x="1340" y="136" text-anchor="middle" class="section">UI ENTRY POINTS</text>
  <text x="395" y="235" text-anchor="middle" class="section">DATABASE TABLE NODES</text>
  <text x="1205" y="235" text-anchor="middle" class="section">PROCESS FLOW NODES</text>
  <text x="2160" y="235" text-anchor="middle" class="section">EXTERNAL INTEGRATION NODES</text>
  <g filter="url(#shadow)">
    <rect x="640" y="150" width="260" height="70" rx="10" ry="10" fill="#dbeafe" stroke="#2563eb" stroke-width="2"/>
    <text x="770" y="174" text-anchor="middle" class="nodeText">Admin / Back-office UI</text>
<text x="770" y="190" text-anchor="middle" class="nodeText">configs, approvals, service pause</text>
  </g>
  <g filter="url(#shadow)">
    <rect x="930" y="150" width="280" height="70" rx="10" ry="10" fill="#dbeafe" stroke="#2563eb" stroke-width="2"/>
    <text x="1070" y="174" text-anchor="middle" class="nodeText">Customer Mobile App</text>
<text x="1070" y="190" text-anchor="middle" class="nodeText">register, KYC, loan, repayment</text>
  </g>
  <g filter="url(#shadow)">
    <rect x="1240" y="150" width="280" height="70" rx="10" ry="10" fill="#dbeafe" stroke="#2563eb" stroke-width="2"/>
    <text x="1380" y="174" text-anchor="middle" class="nodeText">Merchant POS / Portal</text>
<text x="1380" y="190" text-anchor="middle" class="nodeText">BNPL invoice, QR, settlement</text>
  </g>
  <g filter="url(#shadow)">
    <rect x="1550" y="150" width="280" height="70" rx="10" ry="10" fill="#dbeafe" stroke="#2563eb" stroke-width="2"/>
    <text x="1690" y="174" text-anchor="middle" class="nodeText">Finance Ops / Audit UI</text>
<text x="1690" y="190" text-anchor="middle" class="nodeText">reconciliation, reports, exports</text>
  </g>
  <g filter="url(#shadow)">
    <rect x="920" y="270" width="620" height="88" rx="10" ry="10" fill="#fff7ed" stroke="#ea580c" stroke-width="2"/>
    <text x="1230" y="294" text-anchor="middle" class="nodeText">01 System Configuration</text>
<text x="1230" y="310" text-anchor="middle" class="nodeText">Load productCode, brchCode, curCode, txnDefCode,</text>
<text x="1230" y="326" text-anchor="middle" class="nodeText">dynamicData mappings</text>
  </g>
  <g filter="url(#shadow)">
    <rect x="920" y="405" width="620" height="88" rx="10" ry="10" fill="#fff7ed" stroke="#ea580c" stroke-width="2"/>
    <text x="1230" y="429" text-anchor="middle" class="nodeText">02 Merchant Onboarding</text>
<text x="1230" y="445" text-anchor="middle" class="nodeText">Create merchant, terminal, passive account and</text>
<text x="1230" y="461" text-anchor="middle" class="nodeText">settlement account</text>
  </g>
  <g filter="url(#shadow)">
    <rect x="920" y="540" width="620" height="88" rx="10" ry="10" fill="#fff7ed" stroke="#ea580c" stroke-width="2"/>
    <text x="1230" y="564" text-anchor="middle" class="nodeText">03 Customer Registration and Login</text>
<text x="1230" y="580" text-anchor="middle" class="nodeText">OTP, session, PIN/biometric, customer profile</text>
<text x="1230" y="596" text-anchor="middle" class="nodeText">starts pending</text>
  </g>
  <g filter="url(#shadow)">
    <rect x="920" y="675" width="620" height="88" rx="10" ry="10" fill="#fff7ed" stroke="#ea580c" stroke-width="2"/>
    <text x="1230" y="699" text-anchor="middle" class="nodeText">04 DAN Authorization and KYC Capture</text>
<text x="1230" y="715" text-anchor="middle" class="nodeText">DAN consent, HUR fetch, contact/address/files,</text>
<text x="1230" y="731" text-anchor="middle" class="nodeText">manual review if needed</text>
  </g>
  <g filter="url(#shadow)">
    <rect x="920" y="810" width="620" height="88" rx="10" ry="10" fill="#fff7ed" stroke="#ea580c" stroke-width="2"/>
    <text x="1230" y="834" text-anchor="middle" class="nodeText">05 Polaris CIF and Deposit Account</text>
<text x="1230" y="850" text-anchor="middle" class="nodeText">Create/update CIF, create/open customer deposit</text>
<text x="1230" y="866" text-anchor="middle" class="nodeText">CASA, store acntCode</text>
  </g>
  <g filter="url(#shadow)">
    <rect x="920" y="945" width="620" height="88" rx="10" ry="10" fill="#fff7ed" stroke="#ea580c" stroke-width="2"/>
    <text x="1230" y="969" text-anchor="middle" class="nodeText">06 Credit Scoring</text>
<text x="1230" y="985" text-anchor="middle" class="nodeText">Sain/FICO + custom score, factors, grade, model</text>
<text x="1230" y="1001" text-anchor="middle" class="nodeText">version, sync risk fields</text>
  </g>
  <g filter="url(#shadow)">
    <rect x="920" y="1080" width="620" height="88" rx="10" ry="10" fill="#fff7ed" stroke="#ea580c" stroke-width="2"/>
    <text x="1230" y="1104" text-anchor="middle" class="nodeText">07 Limit and Polaris Line Account</text>
<text x="1230" y="1120" text-anchor="middle" class="nodeText">Create local limit, create/open line account</text>
<text x="1230" y="1136" text-anchor="middle" class="nodeText">tied to customer deposit</text>
  </g>
  <g filter="url(#shadow)">
    <rect x="920" y="1215" width="620" height="88" rx="10" ry="10" fill="#fff7ed" stroke="#ea580c" stroke-width="2"/>
    <text x="1230" y="1239" text-anchor="middle" class="nodeText">08 Loan or BNPL Initiation</text>
<text x="1230" y="1255" text-anchor="middle" class="nodeText">One-tap application or POS invoice/QR</text>
<text x="1230" y="1271" text-anchor="middle" class="nodeText">transaction starts</text>
  </g>
  <g filter="url(#shadow)">
    <rect x="920" y="1350" width="620" height="88" rx="10" ry="10" fill="#fff7ed" stroke="#ea580c" stroke-width="2"/>
    <text x="1230" y="1374" text-anchor="middle" class="nodeText">09 Reservation and Approval</text>
<text x="1230" y="1390" text-anchor="middle" class="nodeText">Lock line, reserve amount, approve/reject,</text>
<text x="1230" y="1406" text-anchor="middle" class="nodeText">release on rejection</text>
  </g>
  <g filter="url(#shadow)">
    <rect x="920" y="1485" width="620" height="88" rx="10" ry="10" fill="#fff7ed" stroke="#ea580c" stroke-width="2"/>
    <text x="1230" y="1509" text-anchor="middle" class="nodeText">10 Child Loan Core Setup</text>
<text x="1230" y="1525" text-anchor="middle" class="nodeText">Create/open child loan, calculate/create</text>
<text x="1230" y="1541" text-anchor="middle" class="nodeText">schedule, link child loan to line</text>
  </g>
  <g filter="url(#shadow)">
    <rect x="920" y="1620" width="620" height="88" rx="10" ry="10" fill="#fff7ed" stroke="#ea580c" stroke-width="2"/>
    <text x="1230" y="1644" text-anchor="middle" class="nodeText">11 Grant Loan</text>
<text x="1230" y="1660" text-anchor="middle" class="nodeText">loan/grantLoanNonCash: child loan account to</text>
<text x="1230" y="1676" text-anchor="middle" class="nodeText">customer deposit account</text>
  </g>
  <g filter="url(#shadow)">
    <rect x="920" y="1755" width="620" height="88" rx="10" ry="10" fill="#fff7ed" stroke="#ea580c" stroke-width="2"/>
    <text x="1230" y="1779" text-anchor="middle" class="nodeText">12 BNPL Merchant Transfer</text>
<text x="1230" y="1795" text-anchor="middle" class="nodeText">Customer deposit to merchant passive account,</text>
<text x="1230" y="1811" text-anchor="middle" class="nodeText">then POS approved callback</text>
  </g>
  <g filter="url(#shadow)">
    <rect x="920" y="1890" width="620" height="88" rx="10" ry="10" fill="#fff7ed" stroke="#ea580c" stroke-width="2"/>
    <text x="1230" y="1914" text-anchor="middle" class="nodeText">13 Repayment Processing</text>
<text x="1230" y="1930" text-anchor="middle" class="nodeText">QPay callback, inbound money to deposit, pay</text>
<text x="1230" y="1946" text-anchor="middle" class="nodeText">loan from deposit</text>
  </g>
  <g filter="url(#shadow)">
    <rect x="920" y="2025" width="620" height="88" rx="10" ry="10" fill="#fff7ed" stroke="#ea580c" stroke-width="2"/>
    <text x="1230" y="2049" text-anchor="middle" class="nodeText">14 Allocation and Closing</text>
<text x="1230" y="2065" text-anchor="middle" class="nodeText">Lock schedules, allocate, final payment close</text>
<text x="1230" y="2081" text-anchor="middle" class="nodeText">detail, close account</text>
  </g>
  <g filter="url(#shadow)">
    <rect x="920" y="2160" width="620" height="88" rx="10" ry="10" fill="#fff7ed" stroke="#ea580c" stroke-width="2"/>
    <text x="1230" y="2184" text-anchor="middle" class="nodeText">15 Reconciliation, Reversal, Reporting</text>
<text x="1230" y="2200" text-anchor="middle" class="nodeText">Daily match, pending_reconcile worklist, one</text>
<text x="1230" y="2216" text-anchor="middle" class="nodeText">reversal per jrno, audit/export</text>
  </g>
  <g filter="url(#shadow)">
    <path d="M70,276 C70,260 770,260 770,276 L770,352 C770,368 70,368 70,352 Z M70,276 C70,292 770,292 770,276" fill="#f8fafc" stroke="#64748b" stroke-width="2"/>
    <text x="420" y="286" text-anchor="middle" class="nodeText">Config tables</text>
<text x="420" y="302" text-anchor="middle" class="nodeText">polaris_product_configs</text>
<text x="420" y="318" text-anchor="middle" class="nodeText">polaris_transaction_configs</text>
<text x="420" y="334" text-anchor="middle" class="nodeText">polaris_dynamic_field_mappings</text>
  </g>
  <g filter="url(#shadow)">
    <path d="M70,411 C70,395 770,395 770,411 L770,487 C770,503 70,503 70,487 Z M70,411 C70,427 770,427 770,411" fill="#f8fafc" stroke="#64748b" stroke-width="2"/>
    <text x="420" y="421" text-anchor="middle" class="nodeText">Merchant / POS tables</text>
<text x="420" y="437" text-anchor="middle" class="nodeText">merchant_profiles</text>
<text x="420" y="453" text-anchor="middle" class="nodeText">pos_terminals</text>
<text x="420" y="469" text-anchor="middle" class="nodeText">polaris_accounts</text>
  </g>
  <g filter="url(#shadow)">
    <path d="M70,546 C70,530 770,530 770,546 L770,622 C770,638 70,638 70,622 Z M70,546 C70,562 770,562 770,546" fill="#f8fafc" stroke="#64748b" stroke-width="2"/>
    <text x="420" y="556" text-anchor="middle" class="nodeText">User / auth tables</text>
<text x="420" y="572" text-anchor="middle" class="nodeText">users, customer_profiles</text>
<text x="420" y="588" text-anchor="middle" class="nodeText">otp_sessions, user_sessions</text>
<text x="420" y="604" text-anchor="middle" class="nodeText">PIN and biometric credentials</text>
  </g>
  <g filter="url(#shadow)">
    <path d="M70,681 C70,665 770,665 770,681 L770,757 C770,773 70,773 70,757 Z M70,681 C70,697 770,697 770,681" fill="#f8fafc" stroke="#64748b" stroke-width="2"/>
    <text x="420" y="691" text-anchor="middle" class="nodeText">KYC and identity tables</text>
<text x="420" y="707" text-anchor="middle" class="nodeText">dan_verifications, kyc_*</text>
<text x="420" y="723" text-anchor="middle" class="nodeText">hur_data_snapshots</text>
<text x="420" y="739" text-anchor="middle" class="nodeText">customer_bank_accounts</text>
  </g>
  <g filter="url(#shadow)">
    <path d="M70,816 C70,800 770,800 770,816 L770,892 C770,908 70,908 70,892 Z M70,816 C70,832 770,832 770,816" fill="#f8fafc" stroke="#64748b" stroke-width="2"/>
    <text x="420" y="826" text-anchor="middle" class="nodeText">Customer Polaris account tables</text>
<text x="420" y="842" text-anchor="middle" class="nodeText">customer_profiles.polaris_cust_code</text>
<text x="420" y="858" text-anchor="middle" class="nodeText">customer_deposit_accounts</text>
<text x="420" y="874" text-anchor="middle" class="nodeText">polaris_accounts</text>
  </g>
  <g filter="url(#shadow)">
    <path d="M70,951 C70,935 770,935 770,951 L770,1027 C770,1043 70,1043 70,1027 Z M70,951 C70,967 770,967 770,951" fill="#f8fafc" stroke="#64748b" stroke-width="2"/>
    <text x="420" y="961" text-anchor="middle" class="nodeText">Scoring and limit tables</text>
<text x="420" y="977" text-anchor="middle" class="nodeText">sain_score_requests</text>
<text x="420" y="993" text-anchor="middle" class="nodeText">credit_score_results</text>
<text x="420" y="1009" text-anchor="middle" class="nodeText">credit_scoring_factors</text>
<text x="420" y="1025" text-anchor="middle" class="nodeText">loan_limits</text>
  </g>
  <g filter="url(#shadow)">
    <path d="M70,1086 C70,1070 770,1070 770,1086 L770,1162 C770,1178 70,1178 70,1162 Z M70,1086 C70,1102 770,1102 770,1086" fill="#f8fafc" stroke="#64748b" stroke-width="2"/>
    <text x="420" y="1096" text-anchor="middle" class="nodeText">Line and reservation tables</text>
<text x="420" y="1112" text-anchor="middle" class="nodeText">credit_line_accounts</text>
<text x="420" y="1128" text-anchor="middle" class="nodeText">credit_limit_reservations</text>
<text x="420" y="1144" text-anchor="middle" class="nodeText">loan_limits.active_credit_line_account_id</text>
  </g>
  <g filter="url(#shadow)">
    <path d="M70,1221 C70,1205 770,1205 770,1221 L770,1297 C770,1313 70,1313 70,1297 Z M70,1221 C70,1237 770,1237 770,1221" fill="#f8fafc" stroke="#64748b" stroke-width="2"/>
    <text x="420" y="1231" text-anchor="middle" class="nodeText">Application / POS tables</text>
<text x="420" y="1247" text-anchor="middle" class="nodeText">loan_applications</text>
<text x="420" y="1263" text-anchor="middle" class="nodeText">pos_payment_invoices</text>
<text x="420" y="1279" text-anchor="middle" class="nodeText">pos_qr_codes</text>
<text x="420" y="1295" text-anchor="middle" class="nodeText">pos_transactions</text>
  </g>
  <g filter="url(#shadow)">
    <path d="M70,1356 C70,1340 770,1340 770,1356 L770,1432 C770,1448 70,1448 70,1432 Z M70,1356 C70,1372 770,1372 770,1356" fill="#f8fafc" stroke="#64748b" stroke-width="2"/>
    <text x="420" y="1366" text-anchor="middle" class="nodeText">Approval state tables</text>
<text x="420" y="1382" text-anchor="middle" class="nodeText">loan_applications status</text>
<text x="420" y="1398" text-anchor="middle" class="nodeText">credit_limit_reservations</text>
<text x="420" y="1414" text-anchor="middle" class="nodeText">optional loan_contracts</text>
  </g>
  <g filter="url(#shadow)">
    <path d="M70,1491 C70,1475 770,1475 770,1491 L770,1567 C770,1583 70,1583 70,1567 Z M70,1491 C70,1507 770,1507 770,1491" fill="#f8fafc" stroke="#64748b" stroke-width="2"/>
    <text x="420" y="1501" text-anchor="middle" class="nodeText">Loan core tables</text>
<text x="420" y="1517" text-anchor="middle" class="nodeText">loans</text>
<text x="420" y="1533" text-anchor="middle" class="nodeText">repayment_schedules</text>
<text x="420" y="1549" text-anchor="middle" class="nodeText">loan_core_steps</text>
<text x="420" y="1565" text-anchor="middle" class="nodeText">polaris_sync_queue</text>
  </g>
  <g filter="url(#shadow)">
    <path d="M70,1626 C70,1610 770,1610 770,1626 L770,1702 C770,1718 70,1718 70,1702 Z M70,1626 C70,1642 770,1642 770,1626" fill="#f8fafc" stroke="#64748b" stroke-width="2"/>
    <text x="420" y="1636" text-anchor="middle" class="nodeText">Financial journal tables</text>
<text x="420" y="1652" text-anchor="middle" class="nodeText">ledger_journals</text>
<text x="420" y="1668" text-anchor="middle" class="nodeText">ledger_entries</text>
<text x="420" y="1684" text-anchor="middle" class="nodeText">loans grant jrno fields</text>
  </g>
  <g filter="url(#shadow)">
    <path d="M70,1761 C70,1745 770,1745 770,1761 L770,1837 C770,1853 70,1853 70,1837 Z M70,1761 C70,1777 770,1777 770,1761" fill="#f8fafc" stroke="#64748b" stroke-width="2"/>
    <text x="420" y="1771" text-anchor="middle" class="nodeText">BNPL settlement tables</text>
<text x="420" y="1787" text-anchor="middle" class="nodeText">pos_transactions transfer fields</text>
<text x="420" y="1803" text-anchor="middle" class="nodeText">merchant_settlement_items</text>
<text x="420" y="1819" text-anchor="middle" class="nodeText">pos_terminal_callbacks</text>
  </g>
  <g filter="url(#shadow)">
    <path d="M70,1896 C70,1880 770,1880 770,1896 L770,1972 C770,1988 70,1988 70,1972 Z M70,1896 C70,1912 770,1912 770,1896" fill="#f8fafc" stroke="#64748b" stroke-width="2"/>
    <text x="420" y="1906" text-anchor="middle" class="nodeText">Repayment tables</text>
<text x="420" y="1922" text-anchor="middle" class="nodeText">qpay_repayment_invoices</text>
<text x="420" y="1938" text-anchor="middle" class="nodeText">qpay_repayment_callbacks</text>
<text x="420" y="1954" text-anchor="middle" class="nodeText">repayment_transactions</text>
<text x="420" y="1970" text-anchor="middle" class="nodeText">repayment_allocations</text>
  </g>
  <g filter="url(#shadow)">
    <path d="M70,2031 C70,2015 770,2015 770,2031 L770,2107 C770,2123 70,2123 70,2107 Z M70,2031 C70,2047 770,2047 770,2031" fill="#f8fafc" stroke="#64748b" stroke-width="2"/>
    <text x="420" y="2041" text-anchor="middle" class="nodeText">Close / balance tables</text>
<text x="420" y="2057" text-anchor="middle" class="nodeText">loans status</text>
<text x="420" y="2073" text-anchor="middle" class="nodeText">repayment_schedules</text>
<text x="420" y="2089" text-anchor="middle" class="nodeText">credit_line_accounts utilized amount</text>
<text x="420" y="2105" text-anchor="middle" class="nodeText">ledger_journals</text>
  </g>
  <g filter="url(#shadow)">
    <path d="M70,2166 C70,2150 770,2150 770,2166 L770,2242 C770,2258 70,2258 70,2242 Z M70,2166 C70,2182 770,2182 770,2166" fill="#f8fafc" stroke="#64748b" stroke-width="2"/>
    <text x="420" y="2176" text-anchor="middle" class="nodeText">Audit / API / reconciliation tables</text>
<text x="420" y="2192" text-anchor="middle" class="nodeText">audit_logs, system_event_logs</text>
<text x="420" y="2208" text-anchor="middle" class="nodeText">polaris_api_logs</text>
<text x="420" y="2224" text-anchor="middle" class="nodeText">polaris_operation_attempts</text>
<text x="420" y="2240" text-anchor="middle" class="nodeText">v_polaris_reconciliation_worklist</text>
  </g>
  <g filter="url(#shadow)">
    <rect x="1710" y="397" width="390" height="104" rx="10" ry="10" fill="#ecfeff" stroke="#0891b2" stroke-width="2"/>
    <text x="1905" y="421" text-anchor="middle" class="nodeText">Merchant setup APIs</text>
<text x="1905" y="437" text-anchor="middle" class="nodeText">tmm/insertMerchant</text>
<text x="1905" y="453" text-anchor="middle" class="nodeText">tsd/createTsdTerminal</text>
<text x="1905" y="469" text-anchor="middle" class="nodeText">tmm/insertTmmMerchantTermnl</text>
  </g>
  <g filter="url(#shadow)">
    <rect x="1710" y="667" width="390" height="104" rx="10" ry="10" fill="#ecfeff" stroke="#0891b2" stroke-width="2"/>
    <text x="1905" y="691" text-anchor="middle" class="nodeText">DAN identity authority</text>
<text x="1905" y="707" text-anchor="middle" class="nodeText">identity authorization</text>
<text x="1905" y="723" text-anchor="middle" class="nodeText">register validation</text>
  </g>
  <g filter="url(#shadow)">
    <rect x="2150" y="667" width="390" height="104" rx="10" ry="10" fill="#ecfeff" stroke="#0891b2" stroke-width="2"/>
    <text x="2345" y="691" text-anchor="middle" class="nodeText">HUR data services</text>
<text x="2345" y="707" text-anchor="middle" class="nodeText">income, employment,</text>
<text x="2345" y="723" text-anchor="middle" class="nodeText">social/health snapshots</text>
  </g>
  <g filter="url(#shadow)">
    <rect x="1710" y="802" width="390" height="104" rx="10" ry="10" fill="#ecfeff" stroke="#0891b2" stroke-width="2"/>
    <text x="1905" y="826" text-anchor="middle" class="nodeText">Polaris CIF APIs</text>
<text x="1905" y="842" text-anchor="middle" class="nodeText">cif/createPerson</text>
<text x="1905" y="858" text-anchor="middle" class="nodeText">cif/updatePerson</text>
  </g>
  <g filter="url(#shadow)">
    <rect x="2150" y="802" width="390" height="104" rx="10" ry="10" fill="#ecfeff" stroke="#0891b2" stroke-width="2"/>
    <text x="2345" y="826" text-anchor="middle" class="nodeText">Polaris CASA APIs</text>
<text x="2345" y="842" text-anchor="middle" class="nodeText">casa/createAccount</text>
<text x="2345" y="858" text-anchor="middle" class="nodeText">casa/openAccountStatus</text>
  </g>
  <g filter="url(#shadow)">
    <rect x="1710" y="937" width="390" height="104" rx="10" ry="10" fill="#ecfeff" stroke="#0891b2" stroke-width="2"/>
    <text x="1905" y="961" text-anchor="middle" class="nodeText">Sain / FICO scoring</text>
<text x="1905" y="977" text-anchor="middle" class="nodeText">external risk score</text>
<text x="1905" y="993" text-anchor="middle" class="nodeText">raw response snapshot</text>
  </g>
  <g filter="url(#shadow)">
    <rect x="2150" y="1072" width="390" height="104" rx="10" ry="10" fill="#ecfeff" stroke="#0891b2" stroke-width="2"/>
    <text x="2345" y="1096" text-anchor="middle" class="nodeText">Polaris LINE APIs</text>
<text x="2345" y="1112" text-anchor="middle" class="nodeText">line/createAccount</text>
<text x="2345" y="1128" text-anchor="middle" class="nodeText">line/openAccount</text>
<text x="2345" y="1144" text-anchor="middle" class="nodeText">line/adjustLineAccountLimit</text>
  </g>
  <g filter="url(#shadow)">
    <rect x="1710" y="1207" width="390" height="104" rx="10" ry="10" fill="#ecfeff" stroke="#0891b2" stroke-width="2"/>
    <text x="1905" y="1231" text-anchor="middle" class="nodeText">Merchant POS terminal</text>
<text x="1905" y="1247" text-anchor="middle" class="nodeText">invoice display</text>
<text x="1905" y="1263" text-anchor="middle" class="nodeText">QR scan</text>
<text x="1905" y="1279" text-anchor="middle" class="nodeText">approved/rejected callback</text>
  </g>
  <g filter="url(#shadow)">
    <rect x="1710" y="1477" width="390" height="104" rx="10" ry="10" fill="#ecfeff" stroke="#0891b2" stroke-width="2"/>
    <text x="1905" y="1501" text-anchor="middle" class="nodeText">Polaris loan account APIs</text>
<text x="1905" y="1517" text-anchor="middle" class="nodeText">loan/createAccount</text>
<text x="1905" y="1533" text-anchor="middle" class="nodeText">loan/openAccount</text>
<text x="1905" y="1549" text-anchor="middle" class="nodeText">loan/getAccountDetail</text>
  </g>
  <g filter="url(#shadow)">
    <rect x="2150" y="1477" width="390" height="104" rx="10" ry="10" fill="#ecfeff" stroke="#0891b2" stroke-width="2"/>
    <text x="2345" y="1501" text-anchor="middle" class="nodeText">Polaris schedule + link APIs</text>
<text x="2345" y="1517" text-anchor="middle" class="nodeText">loan/calculateNrsSchedule</text>
<text x="2345" y="1533" text-anchor="middle" class="nodeText">loan/createNrsSchedule</text>
<text x="2345" y="1549" text-anchor="middle" class="nodeText">line/linkLineAccountToLoan</text>
  </g>
  <g filter="url(#shadow)">
    <rect x="1710" y="1612" width="390" height="104" rx="10" ry="10" fill="#ecfeff" stroke="#0891b2" stroke-width="2"/>
    <text x="1905" y="1636" text-anchor="middle" class="nodeText">Polaris grant API</text>
<text x="1905" y="1652" text-anchor="middle" class="nodeText">loan/grantLoanNonCash</text>
<text x="1905" y="1668" text-anchor="middle" class="nodeText">loan account -&gt; customer deposit</text>
<text x="1905" y="1684" text-anchor="middle" class="nodeText">returns jrno</text>
  </g>
  <g filter="url(#shadow)">
    <rect x="2150" y="1747" width="390" height="104" rx="10" ry="10" fill="#ecfeff" stroke="#0891b2" stroke-width="2"/>
    <text x="2345" y="1771" text-anchor="middle" class="nodeText">Internal CASA transaction</text>
<text x="2345" y="1787" text-anchor="middle" class="nodeText">tllrcasa/internalCasaTransaction</text>
<text x="2345" y="1803" text-anchor="middle" class="nodeText">customer deposit -&gt; merchant passive</text>
  </g>
  <g filter="url(#shadow)">
    <rect x="1710" y="1882" width="390" height="104" rx="10" ry="10" fill="#ecfeff" stroke="#0891b2" stroke-width="2"/>
    <text x="1905" y="1906" text-anchor="middle" class="nodeText">QPay integration</text>
<text x="1905" y="1922" text-anchor="middle" class="nodeText">repayment invoice</text>
<text x="1905" y="1938" text-anchor="middle" class="nodeText">payment callback</text>
<text x="1905" y="1954" text-anchor="middle" class="nodeText">unique qpay_payment_id</text>
  </g>
  <g filter="url(#shadow)">
    <rect x="2150" y="1882" width="390" height="104" rx="10" ry="10" fill="#ecfeff" stroke="#0891b2" stroke-width="2"/>
    <text x="2345" y="1906" text-anchor="middle" class="nodeText">Polaris repayment APIs</text>
<text x="2345" y="1922" text-anchor="middle" class="nodeText">inbound transfer to deposit</text>
<text x="2345" y="1938" text-anchor="middle" class="nodeText">loan/nonCashLoanPayment</text>
<text x="2345" y="1954" text-anchor="middle" class="nodeText">loanPaymentTxnNonCash</text>
  </g>
  <g filter="url(#shadow)">
    <rect x="1710" y="2017" width="390" height="104" rx="10" ry="10" fill="#ecfeff" stroke="#0891b2" stroke-width="2"/>
    <text x="1905" y="2041" text-anchor="middle" class="nodeText">Polaris close APIs</text>
<text x="1905" y="2057" text-anchor="middle" class="nodeText">loan/getLoanClosingAccountDetail</text>
<text x="1905" y="2073" text-anchor="middle" class="nodeText">loan/nonCashCloseAccount</text>
  </g>
  <g filter="url(#shadow)">
    <rect x="2150" y="2152" width="390" height="104" rx="10" ry="10" fill="#ecfeff" stroke="#0891b2" stroke-width="2"/>
    <text x="2345" y="2176" text-anchor="middle" class="nodeText">Polaris GEN / reversal APIs</text>
<text x="2345" y="2192" text-anchor="middle" class="nodeText">gen/getTmwJournalList</text>
<text x="2345" y="2208" text-anchor="middle" class="nodeText">gen/getAccountStatement</text>
<text x="2345" y="2224" text-anchor="middle" class="nodeText">gen/doReverseTxn</text>
<text x="2345" y="2240" text-anchor="middle" class="nodeText">gen/undoTransaction</text>
  </g>
  <g filter="url(#shadow)">
    <rect x="90" y="2280" width="360" height="84" rx="10" ry="10" fill="#fee2e2" stroke="#dc2626" stroke-width="2"/>
    <text x="270" y="2304" text-anchor="middle" class="controlText">Idempotency</text>
<text x="270" y="2320" text-anchor="middle" class="controlText">one stable key per operation</text>
<text x="270" y="2336" text-anchor="middle" class="controlText">reuse same key after timeout</text>
  </g>
  <g filter="url(#shadow)">
    <rect x="490" y="2280" width="390" height="84" rx="10" ry="10" fill="#fee2e2" stroke="#dc2626" stroke-width="2"/>
    <text x="685" y="2304" text-anchor="middle" class="controlText">Outbox/Saga</text>
<text x="685" y="2320" text-anchor="middle" class="controlText">all Polaris writes through</text>
<text x="685" y="2336" text-anchor="middle" class="controlText">polaris_sync_queue + attempts</text>
  </g>
  <g filter="url(#shadow)">
    <rect x="920" y="2280" width="430" height="84" rx="10" ry="10" fill="#fee2e2" stroke="#dc2626" stroke-width="2"/>
    <text x="1135" y="2304" text-anchor="middle" class="controlText">Unknown result handling</text>
<text x="1135" y="2320" text-anchor="middle" class="controlText">Polaris timeout =&gt; pending_reconcile</text>
<text x="1135" y="2336" text-anchor="middle" class="controlText">query journals/statements before retry</text>
  </g>
  <g filter="url(#shadow)">
    <rect x="1390" y="2280" width="460" height="84" rx="10" ry="10" fill="#fee2e2" stroke="#dc2626" stroke-width="2"/>
    <text x="1620" y="2304" text-anchor="middle" class="controlText">Double-spend controls</text>
<text x="1620" y="2320" text-anchor="middle" class="controlText">line reservation, POS invoice lock,</text>
<text x="1620" y="2336" text-anchor="middle" class="controlText">QPay duplicate guard, schedule lock</text>
  </g>
  <g filter="url(#shadow)">
    <rect x="1890" y="2280" width="520" height="84" rx="10" ry="10" fill="#fee2e2" stroke="#dc2626" stroke-width="2"/>
    <text x="2150" y="2304" text-anchor="middle" class="controlText">Audit and financial truth</text>
<text x="2150" y="2320" text-anchor="middle" class="controlText">audit status changes only</text>
<text x="2150" y="2336" text-anchor="middle" class="controlText">ledger_journals for money facts</text>
<text x="2150" y="2352" text-anchor="middle" class="controlText">one reversal per original jrno</text>
  </g>
</svg>
