<svg xmlns="http://www.w3.org/2000/svg" width="2800" height="1920" viewBox="0 0 2800 1920">
  <defs>
    <linearGradient id="bg" x1="0" x2="1" y1="0" y2="1">
      <stop offset="0%" stop-color="#f8fafc"/>
      <stop offset="45%" stop-color="#ffffff"/>
      <stop offset="100%" stop-color="#eef6ff"/>
    </linearGradient>
    <marker id="arrow" markerWidth="13" markerHeight="13" refX="11" refY="6.5" orient="auto" markerUnits="strokeWidth">
      <path d="M2,2 L11,6.5 L2,11 Z" fill="#334155"/>
    </marker>
    <marker id="blueArrow" markerWidth="13" markerHeight="13" refX="11" refY="6.5" orient="auto" markerUnits="strokeWidth">
      <path d="M2,2 L11,6.5 L2,11 Z" fill="#2563eb"/>
    </marker>
    <marker id="redArrow" markerWidth="13" markerHeight="13" refX="11" refY="6.5" orient="auto" markerUnits="strokeWidth">
      <path d="M2,2 L11,6.5 L2,11 Z" fill="#dc2626"/>
    </marker>
    <filter id="shadow" x="-10%" y="-10%" width="125%" height="130%">
      <feDropShadow dx="0" dy="8" stdDeviation="8" flood-color="#0f172a" flood-opacity="0.12"/>
    </filter>
    <style>
      .title { font: 800 34px Arial, sans-serif; fill: #0f172a; }
      .subtitle { font: 16px Arial, sans-serif; fill: #475569; }
      .col-title { font: 800 18px Arial, sans-serif; fill: #0f172a; letter-spacing: .2px; }
      .row-title { font: 800 16px Arial, sans-serif; fill: #334155; }
      .card-title { font: 800 14px Arial, sans-serif; fill: #0f172a; }
      .card-text { font: 12.5px Arial, sans-serif; fill: #334155; }
      .tiny { font: 11px Arial, sans-serif; fill: #475569; }
      .badge { font: 700 11px Arial, sans-serif; fill: #0f172a; }
      .legend-title { font: 800 12px Arial, sans-serif; fill: #ffffff; }
      .legend-text { font: 11px Arial, sans-serif; fill: #e2e8f0; }
      .legend-muted { font: 11px Arial, sans-serif; fill: #cbd5e1; }
      .column { rx: 18; ry: 18; stroke-width: 1.5; }
      .row { rx: 12; ry: 12; stroke-width: 1; }
      .card { rx: 10; ry: 10; stroke-width: 1.8; filter: url(#shadow); }
      .pill { rx: 8; ry: 8; stroke-width: 1.2; }
      .edge { fill: none; stroke: #334155; stroke-width: 2.1; marker-end: url(#arrow); }
      .blue-edge { fill: none; stroke: #2563eb; stroke-width: 2.2; marker-end: url(#blueArrow); }
      .red-edge { fill: none; stroke: #dc2626; stroke-width: 2.2; stroke-dasharray: 8 6; marker-end: url(#redArrow); }
      .soft-edge { fill: none; stroke: #94a3b8; stroke-width: 1.7; marker-end: url(#arrow); }
    </style>
  </defs>

  <rect x="0" y="0" width="2800" height="1920" fill="url(#bg)"/>

  <text x="1400" y="54" text-anchor="middle" class="title">Direct Polaris Lending, BNPL, Repayment and Reconciliation Architecture</text>
  <text x="1400" y="84" text-anchor="middle" class="subtitle">No LOS. Local app owns workflow, locks, scoring, reservations, audit, idempotency, and reconciliation. Polaris owns CIF, CASA, line, child loans, journals, schedules, payments, and statements.</text>

  <rect x="46" y="112" width="452" height="1690" class="column" fill="#eff6ff" stroke="#bfdbfe"/>
  <rect x="522" y="112" width="548" height="1690" class="column" fill="#fff7ed" stroke="#fed7aa"/>
  <rect x="1094" y="112" width="520" height="1690" class="column" fill="#f8fafc" stroke="#cbd5e1"/>
  <rect x="1638" y="112" width="610" height="1690" class="column" fill="#ecfeff" stroke="#a5f3fc"/>
  <rect x="2272" y="112" width="482" height="1690" class="column" fill="#fff1f2" stroke="#fecdd3"/>

  <text x="272" y="150" text-anchor="middle" class="col-title">UI / Channels</text>
  <text x="796" y="150" text-anchor="middle" class="col-title">Backend Workflow Services</text>
  <text x="1354" y="150" text-anchor="middle" class="col-title">Core Database Tables</text>
  <text x="1943" y="150" text-anchor="middle" class="col-title">External Integrations / Polaris APIs</text>
  <text x="2513" y="150" text-anchor="middle" class="col-title">Controls, Audit, Failure Handling</text>

  <rect x="60" y="178" width="2680" height="170" class="row" fill="#ffffff" stroke="#e2e8f0"/>
  <text x="84" y="208" class="row-title">0. Configuration and merchant setup</text>
  <rect x="86" y="230" width="360" height="82" class="card" fill="#dbeafe" stroke="#2563eb"/>
  <text x="266" y="254" text-anchor="middle" class="card-title">Admin / Back-office UI</text>
  <text x="266" y="276" text-anchor="middle" class="card-text">Configure product codes, txn defs,</text>
  <text x="266" y="295" text-anchor="middle" class="card-text">branch/currency, dynamicData fields</text>
  <rect x="548" y="220" width="240" height="100" class="card" fill="#ffedd5" stroke="#ea580c"/>
  <text x="668" y="244" text-anchor="middle" class="card-title">Config Service</text>
  <text x="668" y="266" text-anchor="middle" class="card-text">validates active configs</text>
  <text x="668" y="285" text-anchor="middle" class="card-text">blocks missing productCode</text>
  <text x="668" y="304" text-anchor="middle" class="tiny">never hardcode Polaris codes</text>
  <rect x="820" y="220" width="220" height="100" class="card" fill="#ffedd5" stroke="#ea580c"/>
  <text x="930" y="244" text-anchor="middle" class="card-title">Merchant Service</text>
  <text x="930" y="266" text-anchor="middle" class="card-text">merchant + terminal lifecycle</text>
  <text x="930" y="285" text-anchor="middle" class="card-text">passive / settlement accounts</text>
  <rect x="1130" y="215" width="430" height="110" class="card" fill="#f8fafc" stroke="#64748b"/>
  <text x="1345" y="239" text-anchor="middle" class="card-title">Configuration / Merchant Tables</text>
  <text x="1345" y="262" text-anchor="middle" class="card-text">polaris_product_configs, polaris_transaction_configs</text>
  <text x="1345" y="281" text-anchor="middle" class="card-text">polaris_dynamic_field_mappings</text>
  <text x="1345" y="300" text-anchor="middle" class="card-text">merchant_profiles, pos_terminals, polaris_accounts</text>
  <rect x="1678" y="215" width="510" height="110" class="card" fill="#cffafe" stroke="#0891b2"/>
  <text x="1933" y="239" text-anchor="middle" class="card-title">Merchant / Terminal APIs</text>
  <text x="1933" y="262" text-anchor="middle" class="card-text">tmm/insertMerchant, tsd/createTsdTerminal</text>
  <text x="1933" y="281" text-anchor="middle" class="card-text">tmm/insertTmmMerchantTermnl</text>
  <text x="1933" y="300" text-anchor="middle" class="tiny">store passive and settlement account acntCode</text>
  <rect x="2310" y="220" width="400" height="100" class="card" fill="#fee2e2" stroke="#dc2626"/>
  <text x="2510" y="244" text-anchor="middle" class="card-title">Configuration Guards</text>
  <text x="2510" y="266" text-anchor="middle" class="card-text">inactive/missing config blocks account, grant,</text>
  <text x="2510" y="285" text-anchor="middle" class="card-text">repayment, settlement and reversal operations</text>

  <rect x="60" y="378" width="2680" height="250" class="row" fill="#ffffff" stroke="#e2e8f0"/>
  <text x="84" y="408" class="row-title">1. Customer registration, DAN, CIF, deposit account and KYC sync</text>
  <rect x="86" y="435" width="360" height="138" class="card" fill="#dbeafe" stroke="#2563eb"/>
  <text x="266" y="459" text-anchor="middle" class="card-title">Customer Mobile App</text>
  <text x="266" y="481" text-anchor="middle" class="card-text">register, OTP, login, PIN/biometric</text>
  <text x="266" y="500" text-anchor="middle" class="card-text">DAN consent, KYC details, files</text>
  <text x="266" y="519" text-anchor="middle" class="card-text">view onboarding state and retryable errors</text>
  <rect x="548" y="430" width="492" height="148" class="card" fill="#ffedd5" stroke="#ea580c"/>
  <text x="794" y="454" text-anchor="middle" class="card-title">Auth + KYC Orchestration</text>
  <text x="794" y="477" text-anchor="middle" class="card-text">duplicate phone/register guard, session creation</text>
  <text x="794" y="496" text-anchor="middle" class="card-text">DAN verification, HUR fetch, CIF create/update</text>
  <text x="794" y="515" text-anchor="middle" class="card-text">create/open customer deposit account</text>
  <text x="794" y="534" text-anchor="middle" class="tiny">Polaris timeout sets pending_reconcile, not failed</text>
  <rect x="1130" y="425" width="430" height="158" class="card" fill="#f8fafc" stroke="#64748b"/>
  <text x="1345" y="449" text-anchor="middle" class="card-title">Customer / KYC Data</text>
  <text x="1345" y="472" text-anchor="middle" class="card-text">users, customer_profiles, dan_verifications</text>
  <text x="1345" y="491" text-anchor="middle" class="card-text">kyc_personal_details, kyc_addresses, kyc_files</text>
  <text x="1345" y="510" text-anchor="middle" class="card-text">customer_deposit_accounts, polaris_accounts</text>
  <text x="1345" y="529" text-anchor="middle" class="tiny">store polaris_cust_code and deposit acntCode</text>
  <rect x="1678" y="420" width="510" height="168" class="card" fill="#cffafe" stroke="#0891b2"/>
  <text x="1933" y="444" text-anchor="middle" class="card-title">Identity + Polaris Account APIs</text>
  <text x="1933" y="467" text-anchor="middle" class="card-text">DAN, HUR data services</text>
  <text x="1933" y="486" text-anchor="middle" class="card-text">cif/createPerson, cif/updatePerson</text>
  <text x="1933" y="505" text-anchor="middle" class="card-text">casa/createAccount, casa/openAccountStatus</text>
  <text x="1933" y="524" text-anchor="middle" class="tiny">search by register/national ID before retry</text>
  <rect x="2310" y="430" width="400" height="148" class="card" fill="#fee2e2" stroke="#dc2626"/>
  <text x="2510" y="454" text-anchor="middle" class="card-title">Onboarding Controls</text>
  <text x="2510" y="477" text-anchor="middle" class="card-text">unique phone and national_id_hash</text>
  <text x="2510" y="496" text-anchor="middle" class="card-text">CIF/deposit write calls through outbox</text>
  <text x="2510" y="515" text-anchor="middle" class="card-text">KYC active only after local + Polaris sync</text>

  <rect x="60" y="658" width="2680" height="245" class="row" fill="#ffffff" stroke="#e2e8f0"/>
  <text x="84" y="688" class="row-title">2. Scoring, limit creation and Polaris line account</text>
  <rect x="86" y="715" width="360" height="136" class="card" fill="#dbeafe" stroke="#2563eb"/>
  <text x="266" y="739" text-anchor="middle" class="card-title">Customer Offer Screen</text>
  <text x="266" y="762" text-anchor="middle" class="card-text">shows active limit, available line,</text>
  <text x="266" y="781" text-anchor="middle" class="card-text">product terms, BNPL split options</text>
  <rect x="548" y="710" width="492" height="146" class="card" fill="#ffedd5" stroke="#ea580c"/>
  <text x="794" y="734" text-anchor="middle" class="card-title">Scoring + Limit Services</text>
  <text x="794" y="757" text-anchor="middle" class="card-text">FICO/Sain + HUR + custom model factors</text>
  <text x="794" y="776" text-anchor="middle" class="card-text">risk grade, model version, explainability</text>
  <text x="794" y="795" text-anchor="middle" class="card-text">create line account after active loan limit</text>
  <text x="794" y="814" text-anchor="middle" class="tiny">line cannot be lower than confirmed utilization</text>
  <rect x="1130" y="705" width="430" height="156" class="card" fill="#f8fafc" stroke="#64748b"/>
  <text x="1345" y="729" text-anchor="middle" class="card-title">Risk / Limit Tables</text>
  <text x="1345" y="752" text-anchor="middle" class="card-text">sain_score_requests, hur_data_snapshots</text>
  <text x="1345" y="771" text-anchor="middle" class="card-text">credit_score_results, credit_scoring_factors</text>
  <text x="1345" y="790" text-anchor="middle" class="card-text">loan_limits, credit_line_accounts</text>
  <text x="1345" y="809" text-anchor="middle" class="tiny">active_credit_line_account_id points to Polaris line</text>
  <rect x="1678" y="700" width="510" height="166" class="card" fill="#cffafe" stroke="#0891b2"/>
  <text x="1933" y="724" text-anchor="middle" class="card-title">Score Sync + Line APIs</text>
  <text x="1933" y="747" text-anchor="middle" class="card-text">cif/updatePerson dynamicData score fields</text>
  <text x="1933" y="766" text-anchor="middle" class="card-text">line/createAccount, line/openAccount</text>
  <text x="1933" y="785" text-anchor="middle" class="card-text">line/adjustLineAccountLimit</text>
  <text x="1933" y="804" text-anchor="middle" class="tiny">line uses custCode + deposit acntCode + product config</text>
  <rect x="2310" y="710" width="400" height="146" class="card" fill="#fee2e2" stroke="#dc2626"/>
  <text x="2510" y="734" text-anchor="middle" class="card-title">Line Controls</text>
  <text x="2510" y="757" text-anchor="middle" class="card-text">no offer if score sync required but unresolved</text>
  <text x="2510" y="776" text-anchor="middle" class="card-text">suspend new drawdowns if over utilized</text>
  <text x="2510" y="795" text-anchor="middle" class="card-text">pending_reconcile on line create/open timeout</text>

  <rect x="60" y="933" width="2680" height="325" class="row" fill="#ffffff" stroke="#e2e8f0"/>
  <text x="84" y="963" class="row-title">3. One-tap and BNPL loan application, reservation, child loan, schedule, link and grant</text>
  <rect x="86" y="990" width="170" height="116" class="card" fill="#dbeafe" stroke="#2563eb"/>
  <text x="171" y="1014" text-anchor="middle" class="card-title">One-Tap UI</text>
  <text x="171" y="1037" text-anchor="middle" class="card-text">amount, term,</text>
  <text x="171" y="1056" text-anchor="middle" class="card-text">contract accept</text>
  <rect x="276" y="990" width="170" height="116" class="card" fill="#dcfce7" stroke="#16a34a"/>
  <text x="361" y="1014" text-anchor="middle" class="card-title">BNPL POS</text>
  <text x="361" y="1037" text-anchor="middle" class="card-text">invoice, QR,</text>
  <text x="361" y="1056" text-anchor="middle" class="card-text">terminal callback</text>
  <rect x="548" y="975" width="492" height="185" class="card" fill="#ffedd5" stroke="#ea580c"/>
  <text x="794" y="999" text-anchor="middle" class="card-title">Loan Orchestrator + BNPL Processor</text>
  <text x="794" y="1022" text-anchor="middle" class="card-text">lock line row, reserve amount before approval</text>
  <text x="794" y="1041" text-anchor="middle" class="card-text">create/open child loan, calculate/create schedule</text>
  <text x="794" y="1060" text-anchor="middle" class="card-text">link child loan to line, then grant non-cash</text>
  <text x="794" y="1079" text-anchor="middle" class="card-text">BNPL: grant to deposit, then transfer deposit to merchant passive</text>
  <text x="794" y="1098" text-anchor="middle" class="tiny">no customer/POS approval before merchant transfer succeeds</text>
  <rect x="1130" y="970" width="430" height="195" class="card" fill="#f8fafc" stroke="#64748b"/>
  <text x="1345" y="994" text-anchor="middle" class="card-title">Loan / POS / Ledger Tables</text>
  <text x="1345" y="1017" text-anchor="middle" class="card-text">loan_applications, credit_limit_reservations</text>
  <text x="1345" y="1036" text-anchor="middle" class="card-text">loans, repayment_schedules, loan_core_steps</text>
  <text x="1345" y="1055" text-anchor="middle" class="card-text">pos_payment_invoices, pos_transactions</text>
  <text x="1345" y="1074" text-anchor="middle" class="card-text">ledger_journals, ledger_entries</text>
  <text x="1345" y="1093" text-anchor="middle" class="tiny">grant_jrno and merchant_transfer_jrno are unique</text>
  <rect x="1678" y="965" width="510" height="205" class="card" fill="#cffafe" stroke="#0891b2"/>
  <text x="1933" y="989" text-anchor="middle" class="card-title">Polaris Loan and Transfer APIs</text>
  <text x="1933" y="1012" text-anchor="middle" class="card-text">loan/createAccount, loan/openAccount</text>
  <text x="1933" y="1031" text-anchor="middle" class="card-text">loan/calculateNrsSchedule, loan/createNrsSchedule</text>
  <text x="1933" y="1050" text-anchor="middle" class="card-text">line/linkLineAccountToLoan</text>
  <text x="1933" y="1069" text-anchor="middle" class="card-text">loan/grantLoanNonCash</text>
  <text x="1933" y="1088" text-anchor="middle" class="card-text">tllrcasa/internalCasaTransaction for BNPL merchant passive</text>
  <text x="1933" y="1107" text-anchor="middle" class="tiny">grant only after schedule and line link are confirmed</text>
  <rect x="2310" y="975" width="400" height="185" class="card" fill="#fee2e2" stroke="#dc2626"/>
  <text x="2510" y="999" text-anchor="middle" class="card-title">Double-spend / Grant Controls</text>
  <text x="2510" y="1022" text-anchor="middle" class="card-text">available = line - utilized - reserved</text>
  <text x="2510" y="1041" text-anchor="middle" class="card-text">all writes via outbox and operation attempts</text>
  <text x="2510" y="1060" text-anchor="middle" class="card-text">same idempotency key on retry</text>
  <text x="2510" y="1079" text-anchor="middle" class="card-text">timeout means pending_reconcile, query before retry</text>
  <text x="2510" y="1098" text-anchor="middle" class="tiny">prevents double grant and double POS approval</text>

  <rect x="60" y="1288" width="2680" height="260" class="row" fill="#ffffff" stroke="#e2e8f0"/>
  <text x="84" y="1318" class="row-title">4. Repayment, allocation, closing, merchant settlement and refunds</text>
  <rect x="86" y="1350" width="170" height="116" class="card" fill="#dbeafe" stroke="#2563eb"/>
  <text x="171" y="1374" text-anchor="middle" class="card-title">Customer UI</text>
  <text x="171" y="1397" text-anchor="middle" class="card-text">QPay invoice,</text>
  <text x="171" y="1416" text-anchor="middle" class="card-text">payment status</text>
  <rect x="276" y="1350" width="170" height="116" class="card" fill="#dcfce7" stroke="#16a34a"/>
  <text x="361" y="1374" text-anchor="middle" class="card-title">Merchant UI</text>
  <text x="361" y="1397" text-anchor="middle" class="card-text">settlement,</text>
  <text x="361" y="1416" text-anchor="middle" class="card-text">refund request</text>
  <rect x="548" y="1340" width="492" height="145" class="card" fill="#ffedd5" stroke="#ea580c"/>
  <text x="794" y="1364" text-anchor="middle" class="card-title">Repayment / Settlement Services</text>
  <text x="794" y="1387" text-anchor="middle" class="card-text">QPay callback uniqueness and signature validation</text>
  <text x="794" y="1406" text-anchor="middle" class="card-text">inbound money to customer deposit, then pay loan</text>
  <text x="794" y="1425" text-anchor="middle" class="card-text">lock repayment schedules before allocation</text>
  <text x="794" y="1444" text-anchor="middle" class="tiny">final payment checks close detail before account close</text>
  <rect x="1130" y="1335" width="430" height="155" class="card" fill="#f8fafc" stroke="#64748b"/>
  <text x="1345" y="1359" text-anchor="middle" class="card-title">Repayment / Settlement Tables</text>
  <text x="1345" y="1382" text-anchor="middle" class="card-text">qpay_repayment_invoices, callbacks</text>
  <text x="1345" y="1401" text-anchor="middle" class="card-text">repayment_transactions, repayment_allocations</text>
  <text x="1345" y="1420" text-anchor="middle" class="card-text">merchant_settlements, merchant_settlement_items</text>
  <text x="1345" y="1439" text-anchor="middle" class="tiny">ledger journals hold inbound, payment, close, settlement facts</text>
  <rect x="1678" y="1330" width="510" height="165" class="card" fill="#cffafe" stroke="#0891b2"/>
  <text x="1933" y="1354" text-anchor="middle" class="card-title">Repayment / Close / Reversal APIs</text>
  <text x="1933" y="1377" text-anchor="middle" class="card-text">QPay invoice and callback integration</text>
  <text x="1933" y="1396" text-anchor="middle" class="card-text">tllrbac/transactionBacToCasa or configured inbound transfer</text>
  <text x="1933" y="1415" text-anchor="middle" class="card-text">loan/nonCashLoanPayment or loanPaymentTxnNonCash</text>
  <text x="1933" y="1434" text-anchor="middle" class="card-text">loan/getLoanClosingAccountDetail, loan/nonCashCloseAccount</text>
  <text x="1933" y="1453" text-anchor="middle" class="tiny">gen/doReverseTxn or gen/undoTransaction for refunds/reversals</text>
  <rect x="2310" y="1340" width="400" height="145" class="card" fill="#fee2e2" stroke="#dc2626"/>
  <text x="2510" y="1364" text-anchor="middle" class="card-title">Repayment Controls</text>
  <text x="2510" y="1387" text-anchor="middle" class="card-text">duplicate QPay callbacks ignored</text>
  <text x="2510" y="1406" text-anchor="middle" class="card-text">no loan payment until inbound money confirmed</text>
  <text x="2510" y="1425" text-anchor="middle" class="card-text">one reversal per original Polaris jrno</text>
  <text x="2510" y="1444" text-anchor="middle" class="tiny">overpayment and duplicate settlement blocked</text>

  <rect x="60" y="1578" width="2680" height="190" class="row" fill="#ffffff" stroke="#e2e8f0"/>
  <text x="84" y="1608" class="row-title">5. Reconciliation, audit, reporting and EOD/service-pause guard</text>
  <rect x="86" y="1640" width="360" height="92" class="card" fill="#e2e8f0" stroke="#64748b"/>
  <text x="266" y="1664" text-anchor="middle" class="card-title">Finance Ops / Audit UI</text>
  <text x="266" y="1687" text-anchor="middle" class="card-text">dead-letter review, reports, exports,</text>
  <text x="266" y="1706" text-anchor="middle" class="card-text">manual reconciliation decisions</text>
  <rect x="548" y="1630" width="492" height="112" class="card" fill="#ffedd5" stroke="#ea580c"/>
  <text x="794" y="1654" text-anchor="middle" class="card-title">Reconciliation Scheduler</text>
  <text x="794" y="1677" text-anchor="middle" class="card-text">match local ledger vs Polaris journals/statements</text>
  <text x="794" y="1696" text-anchor="middle" class="card-text">balances, loan state, schedules, settlement totals</text>
  <text x="794" y="1715" text-anchor="middle" class="tiny">ambiguous matches stop in manual review</text>
  <rect x="1130" y="1625" width="430" height="122" class="card" fill="#f8fafc" stroke="#64748b"/>
  <text x="1345" y="1649" text-anchor="middle" class="card-title">Logs / Worklists / Reporting Views</text>
  <text x="1345" y="1672" text-anchor="middle" class="card-text">audit_logs, system_event_logs, polaris_api_logs</text>
  <text x="1345" y="1691" text-anchor="middle" class="card-text">polaris_sync_queue, polaris_operation_attempts</text>
  <text x="1345" y="1710" text-anchor="middle" class="card-text">v_status_transition_audit, v_polaris_reconciliation_worklist</text>
  <rect x="1678" y="1625" width="510" height="122" class="card" fill="#cffafe" stroke="#0891b2"/>
  <text x="1933" y="1649" text-anchor="middle" class="card-title">Polaris Truth Queries</text>
  <text x="1933" y="1672" text-anchor="middle" class="card-text">gen/getTmwJournalList, gen/getAccountStatement</text>
  <text x="1933" y="1691" text-anchor="middle" class="card-text">loan/account detail APIs before retry or close</text>
  <text x="1933" y="1710" text-anchor="middle" class="tiny">matching jrno updates local success; no match may retry same key</text>
  <rect x="2310" y="1630" width="400" height="112" class="card" fill="#fee2e2" stroke="#dc2626"/>
  <text x="2510" y="1654" text-anchor="middle" class="card-title">Audit Policy</text>
  <text x="2510" y="1677" text-anchor="middle" class="card-text">audit_logs: business/security/financial changes</text>
  <text x="2510" y="1696" text-anchor="middle" class="card-text">system_event_logs: runtime events</text>
  <text x="2510" y="1715" text-anchor="middle" class="tiny">sensitive reads/exports are audited</text>

  <path d="M446 270 H548" class="blue-edge"/>
  <path d="M788 270 H820" class="edge"/>
  <path d="M1040 270 H1130" class="edge"/>
  <path d="M1560 270 H1678" class="edge"/>
  <path d="M2188 270 H2310" class="red-edge"/>

  <path d="M446 504 H548" class="blue-edge"/>
  <path d="M1040 504 H1130" class="edge"/>
  <path d="M1560 504 H1678" class="edge"/>
  <path d="M2188 504 H2310" class="red-edge"/>
  <path d="M794 578 C794 625 794 655 794 710" class="soft-edge"/>

  <path d="M446 783 H548" class="blue-edge"/>
  <path d="M1040 783 H1130" class="edge"/>
  <path d="M1560 783 H1678" class="edge"/>
  <path d="M2188 783 H2310" class="red-edge"/>
  <path d="M794 856 C794 905 794 935 794 975" class="soft-edge"/>

  <path d="M446 1048 H548" class="blue-edge"/>
  <path d="M1040 1068 H1130" class="edge"/>
  <path d="M1560 1068 H1678" class="edge"/>
  <path d="M2188 1068 H2310" class="red-edge"/>
  <path d="M794 1160 C794 1230 794 1290 794 1340" class="soft-edge"/>

  <path d="M446 1408 H548" class="blue-edge"/>
  <path d="M1040 1412 H1130" class="edge"/>
  <path d="M1560 1412 H1678" class="edge"/>
  <path d="M2188 1412 H2310" class="red-edge"/>
  <path d="M794 1485 C794 1530 794 1585 794 1630" class="soft-edge"/>

  <path d="M446 1686 H548" class="blue-edge"/>
  <path d="M1040 1686 H1130" class="edge"/>
  <path d="M1560 1686 H1678" class="edge"/>
  <path d="M2188 1686 H2310" class="red-edge"/>

  <rect x="64" y="1818" width="2670" height="70" rx="14" ry="14" fill="#0f172a"/>
  <text x="92" y="1846" class="legend-title">Legend</text>
  <rect x="170" y="1830" width="18" height="18" rx="4" fill="#dbeafe" stroke="#2563eb"/>
  <text x="198" y="1845" class="legend-text">UI</text>
  <rect x="260" y="1830" width="18" height="18" rx="4" fill="#ffedd5" stroke="#ea580c"/>
  <text x="288" y="1845" class="legend-text">Backend workflow</text>
  <rect x="440" y="1830" width="18" height="18" rx="4" fill="#f8fafc" stroke="#64748b"/>
  <text x="468" y="1845" class="legend-text">Database tables</text>
  <rect x="640" y="1830" width="18" height="18" rx="4" fill="#cffafe" stroke="#0891b2"/>
  <text x="668" y="1845" class="legend-text">External / Polaris</text>
  <rect x="850" y="1830" width="18" height="18" rx="4" fill="#fee2e2" stroke="#dc2626"/>
  <text x="878" y="1845" class="legend-text">Risk, audit and failure controls</text>
  <text x="1260" y="1845" class="legend-text">Critical invariant: every Polaris write call is outboxed, idempotent, audited at business-status level, journaled if financial, and reconciled if timeout/interruption occurs.</text>
  <text x="92" y="1872" class="legend-muted">Status language: failed = confirmed failure; pending_reconcile = unknown result; dead_letter = unresolved after automated reconciliation.</text>
</svg>
